PathFileType	4	(X/Y/Z)	RBDS011\RBDS011runT35.trc
DataRate	CameraRate	NumFrames	NumMarkers	Units	OrigDataRate	OrigDataStartFrame	OrigNumFrames
150.000000	150.000000	4	33	mm	150.000000	3937	4500
Frame#	Time	L.ASIS			L.Heel.Bottom			L.Heel.Lateral			L.Heel.Top			L.Iliac.Crest			L.MT1			L.MT5			L.PSIS			L.Shank.Bottom.Lateral			L.Shank.Bottom.Medial			L.Shank.Top.Lateral			L.Shank.Top.Medial			L.Thigh.Bottom.Lateral			L.Thigh.Bottom.Medial			L.Thigh.Top.Lateral			L.Thigh.Top.Medial			R.ASIS			R.ASY			R.Heel.Bottom			R.Heel.Lateral			R.Heel.Top			R.Iliac.Crest			R.MT1			R.MT5			R.PSIS			R.Shank.Bottom.Lateral			R.Shank.Bottom.Medial			R.Shank.Top.Lateral			R.Shank.Top.Medial			R.Thigh.Bottom.Lateral			R.Thigh.Bottom.Medial			R.Thigh.Top.Lateral			R.Thigh.Top.Medial			
		X1	Y1	Z1	X2	Y2	Z2	X3	Y3	Z3	X4	Y4	Z4	X5	Y5	Z5	X6	Y6	Z6	X7	Y7	Z7	X8	Y8	Z8	X9	Y9	Z9	X10	Y10	Z10	X11	Y11	Z11	X12	Y12	Z12	X13	Y13	Z13	X14	Y14	Z14	X15	Y15	Z15	X16	Y16	Z16	X17	Y17	Z17	X18	Y18	Z18	X19	Y19	Z19	X20	Y20	Z20	X21	Y21	Z21	X22	Y22	Z22	X23	Y23	Z23	X24	Y24	Z24	X25	Y25	Z25	X26	Y26	Z26	X27	Y27	Z27	X28	Y28	Z28	X29	Y29	Z29	X30	Y30	Z30	X31	Y31	Z31	X32	Y32	Z32	X33	Y33	Z33	

3938	26.24666666666667	2263.046149714346	973.1402345401307	918.7071642836602	1971.358146211719	355.6407373947529	994.4571938060088	1994.493248322616	338.635065582007	955.156577428517	2018.009653813461	371.8267759136047	992.6145428405214	2197.078953739951	1045.448939317714	883.9346902992718	2099.194927496102	172.5414321748295	1042.084460077429	2073.498250890906	184.984362142184	929.4595602632796	2099.05859851415	1009.831749750599	995.0134041636622	2124.855098132605	371.4736419865874	929.589820363473	2107.778869319976	406.1867646291111	969.2862153887889	2185.435333896573	421.6999056282124	912.5316592715639	2169.527821741477	455.8751768491734	951.3770723322091	2367.327661411377	642.5184294960006	861.7041003836878	2322.841067401287	603.4857422606187	904.4227190141527	2289.458068267024	720.4076612008315	855.891552048675	2246.951578939773	683.8232171756055	895.6655291301313	2269.924789204452	969.340549963655	1170.400076690372	1951.335520125652	96.29899225842289	1091.25282604602	1761.205429862709	95.52903557432973	1087.015066846092	1789.967671012884	102.6626103199761	1129.310367855266	1785.349816015498	139.5839129301242	1091.374235373038	2220.274862778085	1022.157139913771	1200.43756559737	1973.681277878392	40.82688714899918	1035.487999117061	1946.016552402404	38.77066593574781	1154.535260442605	2102.50356961919	1012.771544763101	1096.846130594281	1882.318189836232	202.1621426500334	1145.043599435262	1858.463123475959	231.1823007056721	1110.500573212942	1929.213071944548	269.579968970154	1166.990002615108	1899.576314943237	297.3390294445787	1131.891231963568	2119.412464450998	595.7594814144867	1205.666943944844	2059.996713173887	606.6442465038234	1163.92831599198	2126.22554720544	703.9987899392166	1220.67863825771	2069.965384665101	715.6145390919263	1183.065414447827	
3939	26.25333333333333	2264.966472674902	979.1722897894521	918.6538878510164	1987.791749592257	332.8858247423863	996.0607757846821	2011.931334944252	317.8828597145356	956.5809616810099	2033.094566506711	352.520422913886	994.1863663807095	2199.940679480134	1051.437394173508	883.2560207652059	2128.915328896105	159.1446407444868	1041.644043994627	2101.823025190131	170.5591398929103	929.3341473301373	2100.904701828825	1015.556699851226	994.5421450054266	2140.03872720396	359.9374284849147	930.8482623927417	2120.782983918266	393.2579870801049	970.8604551849561	2197.137516281432	414.1663672134572	914.0509969479457	2179.179672476811	447.0067159060667	953.2380315326648	2371.943688552728	650.1056800812355	863.3422159033202	2327.21164908396	610.6229473117063	905.358062028209	2293.456124471926	727.2057571433758	856.3401798023586	2250.71171778731	690.2461125972715	895.5024975906383	2271.470518085837	972.6485741648527	1170.036177310795	1933.622828082906	98.03738108186737	1092.874151713479	1743.548971476684	107.7846581326806	1088.645349574376	1772.756631564318	112.79073383317	1130.938830858076	1769.88109609754	150.4259653707829	1093.452064223405	2224.861663201094	1025.985768855116	1199.821616806876	1951.636878740331	41.66216200701349	1036.013566280852	1924.2092394366	39.73293824617679	1155.257203348849	2104.628129636026	1017.906702090065	1096.935181365584	1865.80689726994	210.6497929854938	1146.561387984229	1842.423978219249	239.3350256804111	1111.452549664472	1912.658091660595	278.2444525613939	1168.196998740859	1883.396361388384	305.6327482197839	1132.507137836227	2107.881435557787	603.6861585356254	1205.507067443779	2049.687685667778	616.8638285397609	1162.769413069647	2119.104839135928	711.5632101412457	1220.207010531166	2063.935387050212	725.329965989075	1181.697296729838	
3940	26.26	2266.879449067816	985.2275514314929	918.5402041843315	2005.699158609166	309.8906298312844	997.6131387346073	2030.679707572107	296.9646820172837	957.9809700011172	2049.377869657925	332.8643084528113	995.7657786801108	2202.374963321025	1057.492613600575	882.753683961777	2159.466417454299	146.5389776365925	1041.175142224216	2131.039983157568	156.8499170703246	929.2035374680922	2102.824302418595	1021.361991739094	994.1232236915322	2155.791421251716	348.2150117345331	932.1136404586521	2134.485905992866	379.9449833652595	972.4805682643293	2209.071590100551	406.2692310266842	915.5856325464852	2189.201841708162	437.5674156564135	955.1554854896197	2375.749386414902	657.1030403884079	865.1178955958549	2330.656780630301	617.3127172182691	906.4152246117646	2296.932760458681	733.6874467298287	856.9467690466299	2253.83340915088	696.4853118469041	895.4718902568821	2272.941208524133	975.9003501516137	1169.552870743103	1916.686146761304	99.89491285938607	1094.485040906631	1727.228682515046	120.9348160650318	1090.717400759361	1756.944473520671	123.7208473458284	1132.884154378898	1755.915317132081	161.9233604626924	1095.759548475094	2229.537730315098	1029.762273437152	1199.207259510549	1930.040644934194	42.76953861748454	1036.671977498466	1903.137546146243	41.044913226389	1156.1410453676	2106.785842859594	1023.215995610906	1097.01066921838	1850.650175205051	219.3302500628043	1148.177092919285	1827.685550549583	247.6372638432666	1112.488229991087	1897.44287719922	287.1396415161651	1169.384390918894	1868.508436162873	314.1129113913352	1133.113873916673	2097.079592181737	611.8036348733456	1205.095172390581	2040.234019778718	627.0869980065986	1161.249898121161	2112.441364988854	719.2140216485719	1219.492333587566	2058.507379567828	734.9322090502767	1179.943509612325	
3941	26.26666666666667	2268.744344440877	991.2172448824394	918.3981080458018	2025.101401089312	286.8238669195048	999.0431241016387	2050.778736064545	276.0336199948803	959.2901045936746	2066.890864213711	313.0090613580847	997.2776092313079	2204.348794235961	1063.581667428132	882.433891281806	2190.768178688592	134.8884368701099	1040.745328690499	2161.132195932996	143.9846554527777	929.107312485397	2104.769005351757	1027.176585285946	993.7734423862273	2172.14195954517	336.3936111738734	933.3559795665712	2148.92265337104	366.3553608494756	974.0864505281606	2221.277902947762	398.0584674254193	917.0891748676123	2199.637565313051	427.6277498229393	957.0582993753546	2378.708611185144	663.4115991211861	867.0223598136084	2333.144574717096	623.4475564732114	907.5842984450861	2299.835954132707	739.7530307064269	857.733727534217	2256.272206569736	702.4340803233556	895.5948591587677	2274.276339989024	979.0532341175654	1168.982669241257	1900.445126497385	101.9169631105729	1096.047406527042	1712.318167591618	134.852127497937	1093.268648937802	1742.588981363535	135.3497464959429	1135.171332108486	1743.474783250768	173.9319191782558	1098.307910621731	2234.164902610972	1033.552354952639	1198.594428167387	1908.878011101158	44.22257590630879	1037.477158099555	1882.822940741083	42.78731224629057	1157.170513795836	2108.907877959222	1028.628909628	1097.077865936126	1836.884451804797	228.030280667173	1149.886959996307	1814.265683758306	255.9369600947247	1113.635346876234	1883.642947774935	296.0639381959637	1170.549756759334	1854.97328818986	322.6072098548212	1133.74227736996	2087.134151889415	619.8697740975183	1204.428412679719	2031.697857482586	637.0289421578841	1159.425567668769	2106.285038067857	726.7449346456622	1218.536870967162	2053.676884383859	744.1808603509561	1177.856022779803	
